<?xml version="1.0" encoding="UTF-8" standalone="no"?>
<!DOCTYPE svg PUBLIC "-//W3C//DTD SVG 1.1//EN"
  "http://www.w3.org/Graphics/SVG/1.1/DTD/svg11.dtd">
<!-- Generated by graphviz version 2.40.1 (20161225.0304)
 -->
<!-- Title: dependencies Pages: 1 -->
<svg width="5470pt" height="284pt"
     viewBox="0.00 0.00 5470.00 284.00" xmlns="http://www.w3.org/2000/svg">
  <g id="graph0" class="graph" transform="scale(1 1) rotate(0) translate(4 280)">
    <title>dependencies</title>
    <polygon fill="#ffffff" stroke="transparent" points="-4,4 -4,-280 5466,-280 5466,4 -4,4"/>
    <text text-anchor="start" x="2710.0091" y="-42.4" font-family="sans-serif" font-weight="bold" font-size="14.00"
          fill="#000000">Legend
    </text>
    <polygon fill="#ffffb3" stroke="transparent" points="2497,-10 2497,-30 2517,-30 2517,-10 2497,-10"/>
    <text text-anchor="start" x="2520.629" y="-15.4" font-family="sans-serif" font-size="14.00" fill="#000000">&#160;Declarations</text>
    <polygon fill="#8dd3c7" stroke="transparent" points="2610,-10 2610,-30 2630,-30 2630,-10 2610,-10"/>
    <text text-anchor="start" x="2633.7251" y="-15.4" font-family="sans-serif" font-size="14.00" fill="#000000">&#160;Module</text>
    <polygon fill="#80b1d3" stroke="transparent" points="2696,-10 2696,-30 2716,-30 2716,-10 2696,-10"/>
    <text text-anchor="start" x="2719.7812" y="-15.4" font-family="sans-serif" font-size="14.00" fill="#000000">&#160;Bootstrap</text>
    <polygon fill="#fdb462" stroke="transparent" points="2793,-10 2793,-30 2813,-30 2813,-10 2793,-10"/>
    <text text-anchor="start" x="2816.6732" y="-15.4" font-family="sans-serif" font-size="14.00" fill="#000000">&#160;Providers</text>
    <polygon fill="#fb8072" stroke="transparent" points="2889,-10 2889,-30 2909,-30 2909,-10 2889,-10"/>
    <text text-anchor="start" x="2912.7258" y="-15.4" font-family="sans-serif" font-size="14.00" fill="#000000">&#160;Exports</text>
    <g id="clust1" class="cluster">
      <title>cluster_AppModule</title>
      <polygon fill="none" stroke="#000000" stroke-dasharray="1,5" points="8,-70 8,-268 5454,-268 5454,-70 8,-70"/>
    </g>
    <g id="clust2" class="cluster">
      <title>cluster_AppModule_declarations</title>
      <polygon fill="none" stroke="#000000" points="2703,-78 2703,-130 5446,-130 5446,-78 2703,-78"/>
    </g>
    <g id="clust23" class="cluster">
      <title>cluster_AppModule_imports</title>
      <polygon fill="none" stroke="#000000" points="820,-78 820,-130 2695,-130 2695,-78 820,-78"/>
    </g>
    <g id="clust25" class="cluster">
      <title>cluster_AppModule_bootstrap</title>
      <polygon fill="none" stroke="#000000" points="2993,-208 2993,-260 3117,-260 3117,-208 2993,-208"/>
    </g>
    <g id="clust26" class="cluster">
      <title>cluster_AppModule_providers</title>
      <polygon fill="none" stroke="#000000" points="16,-78 16,-130 812,-130 812,-78 16,-78"/>
    </g>
    <!-- AppComponent -->
    <g id="node1" class="node">
      <title>AppComponent</title>
      <polygon fill="#ffffb3" stroke="#000000"
               points="5437.9399,-122 5332.0601,-122 5332.0601,-86 5437.9399,-86 5437.9399,-122"/>
      <text text-anchor="middle" x="5385" y="-99.8" font-family="Times,serif" font-size="14.00" fill="#000000">
        AppComponent
      </text>
    </g>
    <!-- AppModule -->
    <g id="node21" class="node">
      <title>AppModule</title>
      <polygon fill="#8dd3c7" stroke="#000000"
               points="3096.6571,-187 3093.6571,-191 3072.6571,-191 3069.6571,-187 3013.3429,-187 3013.3429,-151 3096.6571,-151 3096.6571,-187"/>
      <text text-anchor="middle" x="3055" y="-164.8" font-family="Times,serif" font-size="14.00" fill="#000000">
        AppModule
      </text>
    </g>
    <!-- AppComponent&#45;&gt;AppModule -->
    <g id="edge1" class="edge">
      <title>AppComponent&#45;&gt;AppModule</title>
      <path fill="none" stroke="#000000"
            d="M5385,-122.1985C5385,-146.3563 5385,-186 5385,-186 5385,-186 3106.929,-186 3106.929,-186"/>
      <polygon fill="#000000" stroke="#000000"
               points="3106.9291,-182.5001 3096.929,-186 3106.929,-189.5001 3106.9291,-182.5001"/>
    </g>
    <!-- RegisterComponent -->
    <g id="node2" class="node">
      <title>RegisterComponent</title>
      <polygon fill="#ffffb3" stroke="#000000"
               points="5313.9846,-122 5186.0154,-122 5186.0154,-86 5313.9846,-86 5313.9846,-122"/>
      <text text-anchor="middle" x="5250" y="-99.8" font-family="Times,serif" font-size="14.00" fill="#000000">
        RegisterComponent
      </text>
    </g>
    <!-- RegisterComponent&#45;&gt;AppModule -->
    <g id="edge2" class="edge">
      <title>RegisterComponent&#45;&gt;AppModule</title>
      <path fill="none" stroke="#000000"
            d="M5250,-122.1532C5250,-145.7566 5250,-184 5250,-184 5250,-184 3106.888,-184 3106.888,-184"/>
      <polygon fill="#000000" stroke="#000000"
               points="3106.8881,-180.5001 3096.888,-184 3106.888,-187.5001 3106.8881,-180.5001"/>
    </g>
    <!-- LoginComponent -->
    <g id="node3" class="node">
      <title>LoginComponent</title>
      <polygon fill="#ffffb3" stroke="#000000"
               points="5168.2758,-122 5053.7242,-122 5053.7242,-86 5168.2758,-86 5168.2758,-122"/>
      <text text-anchor="middle" x="5111" y="-99.8" font-family="Times,serif" font-size="14.00" fill="#000000">
        LoginComponent
      </text>
    </g>
    <!-- LoginComponent&#45;&gt;AppModule -->
    <g id="edge3" class="edge">
      <title>LoginComponent&#45;&gt;AppModule</title>
      <path fill="none" stroke="#000000"
            d="M5111,-122.0908C5111,-145.1328 5111,-182 5111,-182 5111,-182 3107.001,-182 3107.001,-182"/>
      <polygon fill="#000000" stroke="#000000"
               points="3107.0011,-178.5001 3097.001,-182 3107.001,-185.5001 3107.0011,-178.5001"/>
    </g>
    <!-- HomeComponent -->
    <g id="node4" class="node">
      <title>HomeComponent</title>
      <polygon fill="#ffffb3" stroke="#000000"
               points="5035.5451,-122 4920.4549,-122 4920.4549,-86 5035.5451,-86 5035.5451,-122"/>
      <text text-anchor="middle" x="4978" y="-99.8" font-family="Times,serif" font-size="14.00" fill="#000000">
        HomeComponent
      </text>
    </g>
    <!-- HomeComponent&#45;&gt;AppModule -->
    <g id="edge4" class="edge">
      <title>HomeComponent&#45;&gt;AppModule</title>
      <path fill="none" stroke="#000000"
            d="M4978,-122.0109C4978,-144.4852 4978,-180 4978,-180 4978,-180 3106.953,-180 3106.953,-180"/>
      <polygon fill="#000000" stroke="#000000"
               points="3106.953,-176.5001 3096.953,-180 3106.9529,-183.5001 3106.953,-176.5001"/>
    </g>
    <!-- BlogComponent -->
    <g id="node5" class="node">
      <title>BlogComponent</title>
      <polygon fill="#ffffb3" stroke="#000000"
               points="4902.0605,-122 4793.9395,-122 4793.9395,-86 4902.0605,-86 4902.0605,-122"/>
      <text text-anchor="middle" x="4848" y="-99.8" font-family="Times,serif" font-size="14.00" fill="#000000">
        BlogComponent
      </text>
    </g>
    <!-- BlogComponent&#45;&gt;AppModule -->
    <g id="edge5" class="edge">
      <title>BlogComponent&#45;&gt;AppModule</title>
      <path fill="none" stroke="#000000"
            d="M4848,-122.2921C4848,-144.2057 4848,-178 4848,-178 4848,-178 3106.6814,-178 3106.6814,-178"/>
      <polygon fill="#000000" stroke="#000000"
               points="3106.6815,-174.5001 3096.6814,-178 3106.6814,-181.5001 3106.6815,-174.5001"/>
    </g>
    <!-- FotosComponent -->
    <g id="node6" class="node">
      <title>FotosComponent</title>
      <polygon fill="#ffffb3" stroke="#000000"
               points="4775.4511,-122 4662.5489,-122 4662.5489,-86 4775.4511,-86 4775.4511,-122"/>
      <text text-anchor="middle" x="4719" y="-99.8" font-family="Times,serif" font-size="14.00" fill="#000000">
        FotosComponent
      </text>
    </g>
    <!-- FotosComponent&#45;&gt;AppModule -->
    <g id="edge6" class="edge">
      <title>FotosComponent&#45;&gt;AppModule</title>
      <path fill="none" stroke="#000000"
            d="M4737.7417,-122.1686C4737.7417,-143.498 4737.7417,-176 4737.7417,-176 4737.7417,-176 3107.0159,-176 3107.0159,-176"/>
      <polygon fill="#000000" stroke="#000000"
               points="3107.016,-172.5001 3097.0159,-176 3107.0159,-179.5001 3107.016,-172.5001"/>
    </g>
    <!-- FotosComponent&#45;&gt;AppModule -->
    <g id="edge7" class="edge">
      <title>FotosComponent&#45;&gt;AppModule</title>
      <path fill="none" stroke="#000000"
            d="M4700.2583,-122.0267C4700.2583,-142.7672 4700.2583,-174 4700.2583,-174 4700.2583,-174 3106.9067,-174 3106.9067,-174"/>
      <polygon fill="#000000" stroke="#000000"
               points="3106.9067,-170.5001 3096.9067,-174 3106.9067,-177.5001 3106.9067,-170.5001"/>
    </g>
    <!-- ManualsComponent -->
    <g id="node7" class="node">
      <title>ManualsComponent</title>
      <polygon fill="#ffffb3" stroke="#000000"
               points="4644.5422,-122 4515.4578,-122 4515.4578,-86 4644.5422,-86 4644.5422,-122"/>
      <text text-anchor="middle" x="4580" y="-99.8" font-family="Times,serif" font-size="14.00" fill="#000000">
        ManualsComponent
      </text>
    </g>
    <!-- ManualsComponent&#45;&gt;AppModule -->
    <g id="edge8" class="edge">
      <title>ManualsComponent&#45;&gt;AppModule</title>
      <path fill="none" stroke="#000000"
            d="M4580,-122.2228C4580,-142.3652 4580,-172 4580,-172 4580,-172 3106.9791,-172 3106.9791,-172"/>
      <polygon fill="#000000" stroke="#000000"
               points="3106.9791,-168.5001 3096.9791,-172 3106.979,-175.5001 3106.9791,-168.5001"/>
    </g>
    <!-- TinyMceComponent -->
    <g id="node8" class="node">
      <title>TinyMceComponent</title>
      <polygon fill="#ffffb3" stroke="#000000"
               points="4497.1499,-122 4364.8501,-122 4364.8501,-86 4497.1499,-86 4497.1499,-122"/>
      <text text-anchor="middle" x="4431" y="-99.8" font-family="Times,serif" font-size="14.00" fill="#000000">
        TinyMceComponent
      </text>
    </g>
    <!-- TinyMceComponent&#45;&gt;AppModule -->
    <g id="edge9" class="edge">
      <title>TinyMceComponent&#45;&gt;AppModule</title>
      <path fill="none" stroke="#000000"
            d="M4431,-122.0348C4431,-141.5762 4431,-170 4431,-170 4431,-170 3106.9323,-170 3106.9323,-170"/>
      <polygon fill="#000000" stroke="#000000"
               points="3106.9323,-166.5001 3096.9323,-170 3106.9322,-173.5001 3106.9323,-166.5001"/>
    </g>
    <!-- PlattenComponent -->
    <g id="node9" class="node">
      <title>PlattenComponent</title>
      <polygon fill="#ffffb3" stroke="#000000"
               points="4347.2162,-122 4226.7838,-122 4226.7838,-86 4347.2162,-86 4347.2162,-122"/>
      <text text-anchor="middle" x="4287" y="-99.8" font-family="Times,serif" font-size="14.00" fill="#000000">
        PlattenComponent
      </text>
    </g>
    <!-- PlattenComponent&#45;&gt;AppModule -->
    <g id="edge10" class="edge">
      <title>PlattenComponent&#45;&gt;AppModule</title>
      <path fill="none" stroke="#000000"
            d="M4287,-122.1061C4287,-141.3391 4287,-169 4287,-169 4287,-169 3106.6968,-169 3106.6968,-169"/>
      <polygon fill="#000000" stroke="#000000"
               points="3106.6968,-165.5001 3096.6968,-169 3106.6968,-172.5001 3106.6968,-165.5001"/>
    </g>
    <!-- PlattenDetailsComponent -->
    <g id="node10" class="node">
      <title>PlattenDetailsComponent</title>
      <polygon fill="#ffffb3" stroke="#000000"
               points="4208.8683,-122 4049.1317,-122 4049.1317,-86 4208.8683,-86 4208.8683,-122"/>
      <text text-anchor="middle" x="4129" y="-99.8" font-family="Times,serif" font-size="14.00" fill="#000000">
        PlattenDetailsComponent
      </text>
    </g>
    <!-- PlattenDetailsComponent&#45;&gt;AppModule -->
    <g id="edge11" class="edge">
      <title>PlattenDetailsComponent&#45;&gt;AppModule</title>
      <path fill="none" stroke="#000000"
            d="M4129,-122.2222C4129,-140.8285 4129,-167 4129,-167 4129,-167 3106.7724,-167 3106.7724,-167"/>
      <polygon fill="#000000" stroke="#000000"
               points="3106.7725,-163.5001 3096.7724,-167 3106.7724,-170.5001 3106.7725,-163.5001"/>
    </g>
    <!-- SafePipe -->
    <g id="node11" class="node">
      <title>SafePipe</title>
      <polygon fill="#ffffb3" stroke="#000000"
               points="4030.7606,-122 3965.2394,-122 3965.2394,-86 4030.7606,-86 4030.7606,-122"/>
      <text text-anchor="middle" x="3998" y="-99.8" font-family="Times,serif" font-size="14.00" fill="#000000">
        SafePipe
      </text>
    </g>
    <!-- SafePipe&#45;&gt;AppModule -->
    <g id="edge12" class="edge">
      <title>SafePipe&#45;&gt;AppModule</title>
      <path fill="none" stroke="#000000"
            d="M3998,-122.302C3998,-140.2699 3998,-165 3998,-165 3998,-165 3106.7363,-165 3106.7363,-165"/>
      <polygon fill="#000000" stroke="#000000"
               points="3106.7363,-161.5001 3096.7363,-165 3106.7363,-168.5001 3106.7363,-161.5001"/>
    </g>
    <!-- OrderBy -->
    <g id="node12" class="node">
      <title>OrderBy</title>
      <polygon fill="#ffffb3" stroke="#000000"
               points="3947.479,-122 3882.521,-122 3882.521,-86 3947.479,-86 3947.479,-122"/>
      <text text-anchor="middle" x="3915" y="-99.8" font-family="Times,serif" font-size="14.00" fill="#000000">OrderBy
      </text>
    </g>
    <!-- OrderBy&#45;&gt;AppModule -->
    <g id="edge13" class="edge">
      <title>OrderBy&#45;&gt;AppModule</title>
      <path fill="none" stroke="#000000"
            d="M3915,-122.0225C3915,-139.3734 3915,-163 3915,-163 3915,-163 3106.7702,-163 3106.7702,-163"/>
      <polygon fill="#000000" stroke="#000000"
               points="3106.7703,-159.5001 3096.7702,-163 3106.7702,-166.5001 3106.7703,-159.5001"/>
    </g>
    <!-- ReversePipe -->
    <g id="node13" class="node">
      <title>ReversePipe</title>
      <polygon fill="#ffffb3" stroke="#000000"
               points="3864.9734,-122 3779.0266,-122 3779.0266,-86 3864.9734,-86 3864.9734,-122"/>
      <text text-anchor="middle" x="3822" y="-99.8" font-family="Times,serif" font-size="14.00" fill="#000000">
        ReversePipe
      </text>
    </g>
    <!-- ReversePipe&#45;&gt;AppModule -->
    <g id="edge14" class="edge">
      <title>ReversePipe&#45;&gt;AppModule</title>
      <path fill="none" stroke="#000000"
            d="M3822,-122.0352C3822,-138.7344 3822,-161 3822,-161 3822,-161 3106.7819,-161 3106.7819,-161"/>
      <polygon fill="#000000" stroke="#000000"
               points="3106.782,-157.5001 3096.7819,-161 3106.7819,-164.5001 3106.782,-157.5001"/>
    </g>
    <!-- PageNotFoundComponent -->
    <g id="node14" class="node">
      <title>PageNotFoundComponent</title>
      <polygon fill="#ffffb3" stroke="#000000"
               points="3760.8243,-122 3595.1757,-122 3595.1757,-86 3760.8243,-86 3760.8243,-122"/>
      <text text-anchor="middle" x="3678" y="-99.8" font-family="Times,serif" font-size="14.00" fill="#000000">
        PageNotFoundComponent
      </text>
    </g>
    <!-- PageNotFoundComponent&#45;&gt;AppModule -->
    <g id="edge15" class="edge">
      <title>PageNotFoundComponent&#45;&gt;AppModule</title>
      <path fill="none" stroke="#000000"
            d="M3678,-122.0091C3678,-138.0494 3678,-159 3678,-159 3678,-159 3106.8442,-159 3106.8442,-159"/>
      <polygon fill="#000000" stroke="#000000"
               points="3106.8442,-155.5001 3096.8442,-159 3106.8441,-162.5001 3106.8442,-155.5001"/>
    </g>
    <!-- LinkAccountComponent -->
    <g id="node15" class="node">
      <title>LinkAccountComponent</title>
      <polygon fill="#ffffb3" stroke="#000000"
               points="3577.7021,-122 3422.2979,-122 3422.2979,-86 3577.7021,-86 3577.7021,-122"/>
      <text text-anchor="middle" x="3500" y="-99.8" font-family="Times,serif" font-size="14.00" fill="#000000">
        LinkAccountComponent
      </text>
    </g>
    <!-- LinkAccountComponent&#45;&gt;AppModule -->
    <g id="edge16" class="edge">
      <title>LinkAccountComponent&#45;&gt;AppModule</title>
      <path fill="none" stroke="#000000"
            d="M3500,-122.2396C3500,-137.5706 3500,-157 3500,-157 3500,-157 3106.8645,-157 3106.8645,-157"/>
      <polygon fill="#000000" stroke="#000000"
               points="3106.8646,-153.5001 3096.8645,-157 3106.8645,-160.5001 3106.8646,-153.5001"/>
    </g>
    <!-- DropzoneComponent -->
    <g id="node16" class="node">
      <title>DropzoneComponent</title>
      <polygon fill="#ffffb3" stroke="#000000"
               points="3404.0296,-122 3267.9704,-122 3267.9704,-86 3404.0296,-86 3404.0296,-122"/>
      <text text-anchor="middle" x="3336" y="-99.8" font-family="Times,serif" font-size="14.00" fill="#000000">
        DropzoneComponent
      </text>
    </g>
    <!-- DropzoneComponent&#45;&gt;AppModule -->
    <g id="edge17" class="edge">
      <title>DropzoneComponent&#45;&gt;AppModule</title>
      <path fill="none" stroke="#000000"
            d="M3336,-122.1243C3336,-136.7832 3336,-155 3336,-155 3336,-155 3106.7651,-155 3106.7651,-155"/>
      <polygon fill="#000000" stroke="#000000"
               points="3106.7652,-151.5001 3096.7651,-155 3106.7651,-158.5001 3106.7652,-151.5001"/>
    </g>
    <!-- ChatComponent -->
    <g id="node17" class="node">
      <title>ChatComponent</title>
      <polygon fill="#ffffb3" stroke="#000000"
               points="3249.7744,-122 3142.2256,-122 3142.2256,-86 3249.7744,-86 3249.7744,-122"/>
      <text text-anchor="middle" x="3196" y="-99.8" font-family="Times,serif" font-size="14.00" fill="#000000">
        ChatComponent
      </text>
    </g>
    <!-- ChatComponent&#45;&gt;AppModule -->
    <g id="edge18" class="edge">
      <title>ChatComponent&#45;&gt;AppModule</title>
      <path fill="none" stroke="#000000"
            d="M3196,-122.2458C3196,-136.1772 3196,-153 3196,-153 3196,-153 3106.9229,-153 3106.9229,-153"/>
      <polygon fill="#000000" stroke="#000000"
               points="3106.9229,-149.5001 3096.9229,-153 3106.9229,-156.5001 3106.9229,-149.5001"/>
    </g>
    <!-- FroalaEditorDirective -->
    <g id="node18" class="node">
      <title>FroalaEditorDirective</title>
      <polygon fill="#ffffb3" stroke="#000000"
               points="3124.3403,-122 2985.6597,-122 2985.6597,-86 3124.3403,-86 3124.3403,-122"/>
      <text text-anchor="middle" x="3055" y="-99.8" font-family="Times,serif" font-size="14.00" fill="#000000">
        FroalaEditorDirective
      </text>
    </g>
    <!-- FroalaEditorDirective&#45;&gt;AppModule -->
    <g id="edge19" class="edge">
      <title>FroalaEditorDirective&#45;&gt;AppModule</title>
      <path fill="none" stroke="#000000" d="M3055,-122.1061C3055,-122.1061 3055,-140.991 3055,-140.991"/>
      <polygon fill="#000000" stroke="#000000"
               points="3051.5001,-140.9909 3055,-150.991 3058.5001,-140.991 3051.5001,-140.9909"/>
    </g>
    <!-- FroalaViewDirective -->
    <g id="node19" class="node">
      <title>FroalaViewDirective</title>
      <polygon fill="#ffffb3" stroke="#000000"
               points="2967.1643,-122 2832.8357,-122 2832.8357,-86 2967.1643,-86 2967.1643,-122"/>
      <text text-anchor="middle" x="2900" y="-99.8" font-family="Times,serif" font-size="14.00" fill="#000000">
        FroalaViewDirective
      </text>
    </g>
    <!-- FroalaViewDirective&#45;&gt;AppModule -->
    <g id="edge20" class="edge">
      <title>FroalaViewDirective&#45;&gt;AppModule</title>
      <path fill="none" stroke="#000000"
            d="M2900,-122.2458C2900,-136.1772 2900,-153 2900,-153 2900,-153 3003.0548,-153 3003.0548,-153"/>
      <polygon fill="#000000" stroke="#000000"
               points="3003.0548,-156.5001 3013.0548,-153 3003.0547,-149.5001 3003.0548,-156.5001"/>
    </g>
    <!-- StickyDirective -->
    <g id="node20" class="node">
      <title>StickyDirective</title>
      <polygon fill="#ffffb3" stroke="#000000"
               points="2814.8613,-122 2711.1387,-122 2711.1387,-86 2814.8613,-86 2814.8613,-122"/>
      <text text-anchor="middle" x="2763" y="-99.8" font-family="Times,serif" font-size="14.00" fill="#000000">
        StickyDirective
      </text>
    </g>
    <!-- StickyDirective&#45;&gt;AppModule -->
    <g id="edge21" class="edge">
      <title>StickyDirective&#45;&gt;AppModule</title>
      <path fill="none" stroke="#000000"
            d="M2763,-122.1243C2763,-136.7832 2763,-155 2763,-155 2763,-155 3003.1635,-155 3003.1635,-155"/>
      <polygon fill="#000000" stroke="#000000"
               points="3003.1636,-158.5001 3013.1635,-155 3003.1635,-151.5001 3003.1636,-158.5001"/>
    </g>
    <!-- AppComponent  -->
    <g id="node34" class="node">
      <title>AppComponent</title>
      <polygon fill="#80b1d3" stroke="#000000"
               points="3109.439,-252 3000.561,-252 3000.561,-216 3109.439,-216 3109.439,-252"/>
      <text text-anchor="middle" x="3055" y="-229.8" font-family="Times,serif" font-size="14.00" fill="#000000">
        AppComponent
      </text>
    </g>
    <!-- AppModule&#45;&gt;AppComponent  -->
    <g id="edge34" class="edge">
      <title>AppModule&#45;&gt;AppComponent</title>
      <path fill="none" stroke="#000000" stroke-dasharray="1,5"
            d="M3055,-187.1061C3055,-187.1061 3055,-205.991 3055,-205.991"/>
      <polygon fill="#000000" stroke="#000000"
               points="3051.5001,-205.9909 3055,-215.991 3058.5001,-205.991 3051.5001,-205.9909"/>
    </g>
    <!-- RouterModule.forRoot(args) -->
    <g id="node22" class="node">
      <title>RouterModule.forRoot(args)</title>
      <polygon fill="#8dd3c7" stroke="#000000"
               points="2686.8419,-122 2683.8419,-126 2662.8419,-126 2659.8419,-122 2509.1581,-122 2509.1581,-86 2686.8419,-86 2686.8419,-122"/>
      <text text-anchor="middle" x="2598" y="-99.8" font-family="Times,serif" font-size="14.00" fill="#000000">
        RouterModule.forRoot(args)
      </text>
    </g>
    <!-- RouterModule.forRoot(args)&#45;&gt;AppModule -->
    <g id="edge22" class="edge">
      <title>RouterModule.forRoot(args)&#45;&gt;AppModule</title>
      <path fill="none" stroke="#000000"
            d="M2598,-122.2396C2598,-137.5706 2598,-157 2598,-157 2598,-157 3003.2328,-157 3003.2328,-157"/>
      <polygon fill="#000000" stroke="#000000"
               points="3003.2328,-160.5001 3013.2328,-157 3003.2328,-153.5001 3003.2328,-160.5001"/>
    </g>
    <!-- BrowserModule -->
    <g id="node23" class="node">
      <title>BrowserModule</title>
      <polygon fill="#8dd3c7" stroke="#000000"
               points="2491.4734,-122 2488.4734,-126 2467.4734,-126 2464.4734,-122 2384.5266,-122 2384.5266,-86 2491.4734,-86 2491.4734,-122"/>
      <text text-anchor="middle" x="2438" y="-99.8" font-family="Times,serif" font-size="14.00" fill="#000000">
        BrowserModule
      </text>
    </g>
    <!-- BrowserModule&#45;&gt;AppModule -->
    <g id="edge23" class="edge">
      <title>BrowserModule&#45;&gt;AppModule</title>
      <path fill="none" stroke="#000000"
            d="M2438,-122.0091C2438,-138.0494 2438,-159 2438,-159 2438,-159 3003.0762,-159 3003.0762,-159"/>
      <polygon fill="#000000" stroke="#000000"
               points="3003.0762,-162.5001 3013.0762,-159 3003.0761,-155.5001 3003.0762,-162.5001"/>
    </g>
    <!-- CommonModule -->
    <g id="node24" class="node">
      <title>CommonModule</title>
      <polygon fill="#8dd3c7" stroke="#000000"
               points="2366.6681,-122 2363.6681,-126 2342.6681,-126 2339.6681,-122 2255.3319,-122 2255.3319,-86 2366.6681,-86 2366.6681,-122"/>
      <text text-anchor="middle" x="2311" y="-99.8" font-family="Times,serif" font-size="14.00" fill="#000000">
        CommonModule
      </text>
    </g>
    <!-- CommonModule&#45;&gt;AppModule -->
    <g id="edge24" class="edge">
      <title>CommonModule&#45;&gt;AppModule</title>
      <path fill="none" stroke="#000000"
            d="M2311,-122.0352C2311,-138.7344 2311,-161 2311,-161 2311,-161 3003.1367,-161 3003.1367,-161"/>
      <polygon fill="#000000" stroke="#000000"
               points="3003.1368,-164.5001 3013.1367,-161 3003.1367,-157.5001 3003.1368,-164.5001"/>
    </g>
    <!-- HttpModule -->
    <g id="node25" class="node">
      <title>HttpModule</title>
      <polygon fill="#8dd3c7" stroke="#000000"
               points="2237.4387,-122 2234.4387,-126 2213.4387,-126 2210.4387,-122 2152.5613,-122 2152.5613,-86 2237.4387,-86 2237.4387,-122"/>
      <text text-anchor="middle" x="2195" y="-99.8" font-family="Times,serif" font-size="14.00" fill="#000000">
        HttpModule
      </text>
    </g>
    <!-- HttpModule&#45;&gt;AppModule -->
    <g id="edge25" class="edge">
      <title>HttpModule&#45;&gt;AppModule</title>
      <path fill="none" stroke="#000000"
            d="M2195,-122.0225C2195,-139.3734 2195,-163 2195,-163 2195,-163 3003.2298,-163 3003.2298,-163"/>
      <polygon fill="#000000" stroke="#000000"
               points="3003.2298,-166.5001 3013.2298,-163 3003.2297,-159.5001 3003.2298,-166.5001"/>
    </g>
    <!-- JsonpModule -->
    <g id="node26" class="node">
      <title>JsonpModule</title>
      <polygon fill="#8dd3c7" stroke="#000000"
               points="2134.9401,-122 2131.9401,-126 2110.9401,-126 2107.9401,-122 2043.0599,-122 2043.0599,-86 2134.9401,-86 2134.9401,-122"/>
      <text text-anchor="middle" x="2089" y="-99.8" font-family="Times,serif" font-size="14.00" fill="#000000">
        JsonpModule
      </text>
    </g>
    <!-- JsonpModule&#45;&gt;AppModule -->
    <g id="edge26" class="edge">
      <title>JsonpModule&#45;&gt;AppModule</title>
      <path fill="none" stroke="#000000"
            d="M2089,-122.302C2089,-140.2699 2089,-165 2089,-165 2089,-165 3003.1821,-165 3003.1821,-165"/>
      <polygon fill="#000000" stroke="#000000"
               points="3003.1822,-168.5001 3013.1821,-165 3003.1821,-161.5001 3003.1822,-168.5001"/>
    </g>
    <!-- FormsModule -->
    <g id="node27" class="node">
      <title>FormsModule</title>
      <polygon fill="#8dd3c7" stroke="#000000"
               points="2025.8288,-122 2022.8288,-126 2001.8288,-126 1998.8288,-122 1930.1712,-122 1930.1712,-86 2025.8288,-86 2025.8288,-122"/>
      <text text-anchor="middle" x="1978" y="-99.8" font-family="Times,serif" font-size="14.00" fill="#000000">
        FormsModule
      </text>
    </g>
    <!-- FormsModule&#45;&gt;AppModule -->
    <g id="edge27" class="edge">
      <title>FormsModule&#45;&gt;AppModule</title>
      <path fill="none" stroke="#000000"
            d="M1978,-122.2222C1978,-140.8285 1978,-167 1978,-167 1978,-167 3003.1109,-167 3003.1109,-167"/>
      <polygon fill="#000000" stroke="#000000"
               points="3003.1109,-170.5001 3013.1109,-167 3003.1108,-163.5001 3003.1109,-170.5001"/>
    </g>
    <!-- ReactiveFormsModule -->
    <g id="node28" class="node">
      <title>ReactiveFormsModule</title>
      <polygon fill="#8dd3c7" stroke="#000000"
               points="1912.3047,-122 1909.3047,-126 1888.3047,-126 1885.3047,-122 1767.6953,-122 1767.6953,-86 1912.3047,-86 1912.3047,-122"/>
      <text text-anchor="middle" x="1840" y="-99.8" font-family="Times,serif" font-size="14.00" fill="#000000">
        ReactiveFormsModule
      </text>
    </g>
    <!-- ReactiveFormsModule&#45;&gt;AppModule -->
    <g id="edge28" class="edge">
      <title>ReactiveFormsModule&#45;&gt;AppModule</title>
      <path fill="none" stroke="#000000"
            d="M1840,-122.1061C1840,-141.3391 1840,-169 1840,-169 1840,-169 3003.1769,-169 3003.1769,-169"/>
      <polygon fill="#000000" stroke="#000000"
               points="3003.177,-172.5001 3013.1769,-169 3003.1769,-165.5001 3003.177,-172.5001"/>
    </g>
    <!-- AngularFireModule.initializeApp(args) -->
    <g id="node29" class="node">
      <title>AngularFireModule.initializeApp(args)</title>
      <polygon fill="#8dd3c7" stroke="#000000"
               points="1749.7057,-122 1746.7057,-126 1725.7057,-126 1722.7057,-122 1512.2943,-122 1512.2943,-86 1749.7057,-86 1749.7057,-122"/>
      <text text-anchor="middle" x="1631" y="-99.8" font-family="Times,serif" font-size="14.00" fill="#000000">
        AngularFireModule.initializeApp(args)
      </text>
    </g>
    <!-- AngularFireModule.initializeApp(args)&#45;&gt;AppModule -->
    <g id="edge29" class="edge">
      <title>AngularFireModule.initializeApp(args)&#45;&gt;AppModule</title>
      <path fill="none" stroke="#000000"
            d="M1631,-122.0348C1631,-141.5762 1631,-170 1631,-170 1631,-170 3003.1536,-170 3003.1536,-170"/>
      <polygon fill="#000000" stroke="#000000"
               points="3003.1536,-173.5001 3013.1536,-170 3003.1535,-166.5001 3003.1536,-173.5001"/>
    </g>
    <!-- SlimLoadingBarModule.forRoot() -->
    <g id="node30" class="node">
      <title>SlimLoadingBarModule.forRoot()</title>
      <polygon fill="#8dd3c7" stroke="#000000"
               points="1494.7435,-122 1491.7435,-126 1470.7435,-126 1467.7435,-122 1285.2565,-122 1285.2565,-86 1494.7435,-86 1494.7435,-122"/>
      <text text-anchor="middle" x="1390" y="-99.8" font-family="Times,serif" font-size="14.00" fill="#000000">
        SlimLoadingBarModule.forRoot()
      </text>
    </g>
    <!-- SlimLoadingBarModule.forRoot()&#45;&gt;AppModule -->
    <g id="edge30" class="edge">
      <title>SlimLoadingBarModule.forRoot()&#45;&gt;AppModule</title>
      <path fill="none" stroke="#000000"
            d="M1390,-122.2228C1390,-142.3652 1390,-172 1390,-172 1390,-172 3003.0097,-172 3003.0097,-172"/>
      <polygon fill="#000000" stroke="#000000"
               points="3003.0098,-175.5001 3013.0097,-172 3003.0097,-168.5001 3003.0098,-175.5001"/>
    </g>
    <!-- MaterialModule -->
    <g id="node31" class="node">
      <title>MaterialModule</title>
      <polygon fill="#8dd3c7" stroke="#000000"
               points="1267.4706,-122 1264.4706,-126 1243.4706,-126 1240.4706,-122 1160.5294,-122 1160.5294,-86 1267.4706,-86 1267.4706,-122"/>
      <text text-anchor="middle" x="1214" y="-99.8" font-family="Times,serif" font-size="14.00" fill="#000000">
        MaterialModule
      </text>
    </g>
    <!-- MaterialModule&#45;&gt;AppModule -->
    <g id="edge31" class="edge">
      <title>MaterialModule&#45;&gt;AppModule</title>
      <path fill="none" stroke="#000000"
            d="M1214,-122.0267C1214,-142.7672 1214,-174 1214,-174 1214,-174 3003.0891,-174 3003.0891,-174"/>
      <polygon fill="#000000" stroke="#000000"
               points="3003.0892,-177.5001 3013.0891,-174 3003.0891,-170.5001 3003.0892,-177.5001"/>
    </g>
    <!-- FlexLayoutModule -->
    <g id="node32" class="node">
      <title>FlexLayoutModule</title>
      <polygon fill="#8dd3c7" stroke="#000000"
               points="1142.0954,-122 1139.0954,-126 1118.0954,-126 1115.0954,-122 1017.9046,-122 1017.9046,-86 1142.0954,-86 1142.0954,-122"/>
      <text text-anchor="middle" x="1080" y="-99.8" font-family="Times,serif" font-size="14.00" fill="#000000">
        FlexLayoutModule
      </text>
    </g>
    <!-- FlexLayoutModule&#45;&gt;AppModule -->
    <g id="edge32" class="edge">
      <title>FlexLayoutModule&#45;&gt;AppModule</title>
      <path fill="none" stroke="#000000"
            d="M1080,-122.1686C1080,-143.498 1080,-176 1080,-176 1080,-176 3003.2936,-176 3003.2936,-176"/>
      <polygon fill="#000000" stroke="#000000"
               points="3003.2937,-179.5001 3013.2936,-176 3003.2936,-172.5001 3003.2937,-179.5001"/>
    </g>
    <!-- BrowserAnimationsModule -->
    <g id="node33" class="node">
      <title>BrowserAnimationsModule</title>
      <polygon fill="#8dd3c7" stroke="#000000"
               points="1000.3019,-122 997.3019,-126 976.3019,-126 973.3019,-122 827.6981,-122 827.6981,-86 1000.3019,-86 1000.3019,-122"/>
      <text text-anchor="middle" x="914" y="-99.8" font-family="Times,serif" font-size="14.00" fill="#000000">
        BrowserAnimationsModule
      </text>
    </g>
    <!-- BrowserAnimationsModule&#45;&gt;AppModule -->
    <g id="edge33" class="edge">
      <title>BrowserAnimationsModule&#45;&gt;AppModule</title>
      <path fill="none" stroke="#000000"
            d="M914,-122.2921C914,-144.2057 914,-178 914,-178 914,-178 3003.1927,-178 3003.1927,-178"/>
      <polygon fill="#000000" stroke="#000000"
               points="3003.1927,-181.5001 3013.1927,-178 3003.1927,-174.5001 3003.1927,-181.5001"/>
    </g>
    <!-- FirebaseAuthService -->
    <g id="node35" class="node">
      <title>FirebaseAuthService</title>
      <ellipse fill="#fdb462" stroke="#000000" cx="712" cy="-104" rx="92.0296" ry="18"/>
      <text text-anchor="middle" x="712" y="-99.8" font-family="Times,serif" font-size="14.00" fill="#000000">
        FirebaseAuthService
      </text>
    </g>
    <!-- FirebaseAuthService&#45;&gt;AppModule -->
    <g id="edge35" class="edge">
      <title>FirebaseAuthService&#45;&gt;AppModule</title>
      <path fill="none" stroke="#000000"
            d="M712,-122.0109C712,-144.4852 712,-180 712,-180 712,-180 3003.3384,-180 3003.3384,-180"/>
      <polygon fill="#000000" stroke="#000000"
               points="3003.3385,-183.5001 3013.3384,-180 3003.3384,-176.5001 3003.3385,-183.5001"/>
    </g>
    <!-- FirebaseDatabaseService -->
    <g id="node36" class="node">
      <title>FirebaseDatabaseService</title>
      <ellipse fill="#fdb462" stroke="#000000" cx="494" cy="-104" rx="108.1777" ry="18"/>
      <text text-anchor="middle" x="494" y="-99.8" font-family="Times,serif" font-size="14.00" fill="#000000">
        FirebaseDatabaseService
      </text>
    </g>
    <!-- FirebaseDatabaseService&#45;&gt;AppModule -->
    <g id="edge36" class="edge">
      <title>FirebaseDatabaseService&#45;&gt;AppModule</title>
      <path fill="none" stroke="#000000"
            d="M494,-122.0908C494,-145.1328 494,-182 494,-182 494,-182 3003.2122,-182 3003.2122,-182"/>
      <polygon fill="#000000" stroke="#000000"
               points="3003.2122,-185.5001 3013.2122,-182 3003.2122,-178.5001 3003.2122,-185.5001"/>
    </g>
    <!-- FirebaseStorageService -->
    <g id="node37" class="node">
      <title>FirebaseStorageService</title>
      <ellipse fill="#fdb462" stroke="#000000" cx="266" cy="-104" rx="102.4004" ry="18"/>
      <text text-anchor="middle" x="266" y="-99.8" font-family="Times,serif" font-size="14.00" fill="#000000">
        FirebaseStorageService
      </text>
    </g>
    <!-- FirebaseStorageService&#45;&gt;AppModule -->
    <g id="edge37" class="edge">
      <title>FirebaseStorageService&#45;&gt;AppModule</title>
      <path fill="none" stroke="#000000"
            d="M266,-122.1532C266,-145.7566 266,-184 266,-184 266,-184 3003.1356,-184 3003.1356,-184"/>
      <polygon fill="#000000" stroke="#000000"
               points="3003.1357,-187.5001 3013.1356,-184 3003.1356,-180.5001 3003.1357,-187.5001"/>
    </g>
    <!-- FormBuilder -->
    <g id="node38" class="node">
      <title>FormBuilder</title>
      <ellipse fill="#fdb462" stroke="#000000" cx="85" cy="-104" rx="60.8525" ry="18"/>
      <text text-anchor="middle" x="85" y="-99.8" font-family="Times,serif" font-size="14.00" fill="#000000">
        FormBuilder
      </text>
    </g>
    <!-- FormBuilder&#45;&gt;AppModule -->
    <g id="edge38" class="edge">
      <title>FormBuilder&#45;&gt;AppModule</title>
      <path fill="none" stroke="#000000"
            d="M85,-122.1985C85,-146.3563 85,-186 85,-186 85,-186 3003.2991,-186 3003.2991,-186"/>
      <polygon fill="#000000" stroke="#000000"
               points="3003.2991,-189.5001 3013.2991,-186 3003.299,-182.5001 3003.2991,-189.5001"/>
    </g>
  </g>
</svg>
